<svg xmlns="http://www.w3.org/2000/svg" width="34.733" height="34.733" viewBox="0 0 34.733 34.733">
  <g id="Arrows_x2C__exchange_x2C__buildings_x2C__business_offices" transform="translate(-1 -1)">
    <g id="XMLID_2963_" transform="translate(7.947 9.104)">
      <g id="XMLID_2556_" transform="translate(0 5.789)">
        <path id="Path_7282" data-name="Path 7282" d="M7.579,26.893A.579.579,0,0,1,7,26.314V13.579A.579.579,0,0,1,7.579,13h6.947a.579.579,0,1,1,0,1.158H8.158V26.314A.579.579,0,0,1,7.579,26.893Z" transform="translate(-7 -13)" fill="#263238"/>
      </g>
      <g id="XMLID_3016_" transform="translate(6.947)">
        <g id="XMLID_3048_" transform="translate(2.316 5.789)">
          <g id="XMLID_2383_" transform="translate(0 13.893)">
            <path id="Path_7283" data-name="Path 7283" d="M20.21,26.158H15.579a.579.579,0,0,1,0-1.158H20.21a.579.579,0,0,1,0,1.158Z" transform="translate(-15 -25)" fill="#263238"/>
          </g>
          <g id="XMLID_3061_" transform="translate(0 11.578)">
            <path id="Path_7284" data-name="Path 7284" d="M21.368,24.158H15.579a.579.579,0,0,1,0-1.158h5.789a.579.579,0,0,1,0,1.158Z" transform="translate(-15 -23)" fill="#263238"/>
          </g>
          <g id="XMLID_3059_" transform="translate(0 9.262)">
            <path id="Path_7285" data-name="Path 7285" d="M23.1,22.158H15.579a.579.579,0,0,1,0-1.158H23.1a.579.579,0,1,1,0,1.158Z" transform="translate(-15 -21)" fill="#263238"/>
          </g>
          <g id="XMLID_3057_" transform="translate(0 6.947)">
            <path id="Path_7286" data-name="Path 7286" d="M26,20.158H15.579a.579.579,0,1,1,0-1.158H26a.579.579,0,1,1,0,1.158Z" transform="translate(-15 -19)" fill="#263238"/>
          </g>
          <g id="XMLID_3052_" transform="translate(0 4.631)">
            <path id="Path_7287" data-name="Path 7287" d="M26,18.158H15.579a.579.579,0,0,1,0-1.158H26a.579.579,0,1,1,0,1.158Z" transform="translate(-15 -17)" fill="#263238"/>
          </g>
          <g id="XMLID_3050_">
            <path id="Path_7288" data-name="Path 7288" d="M26,14.158H15.579a.579.579,0,0,1,0-1.158H26a.579.579,0,0,1,0,1.158Z" transform="translate(-15 -13)" fill="#263238"/>
          </g>
          <g id="XMLID_3045_" transform="translate(0 2.316)">
            <path id="Path_7289" data-name="Path 7289" d="M26,16.158H15.579a.579.579,0,0,1,0-1.158H26a.579.579,0,0,1,0,1.158Z" transform="translate(-15 -15)" fill="#263238"/>
          </g>
        </g>
        <path id="Path_7290" data-name="Path 7290" d="M13.579,29.682A.579.579,0,0,1,13,29.1V10.579A.579.579,0,0,1,13.579,10H26.314a.579.579,0,0,1,.579.579V22.157a.579.579,0,1,1-1.158,0v-11H14.158V29.1A.579.579,0,0,1,13.579,29.682Z" transform="translate(-13 -7.684)" fill="#263238"/>
        <path id="Path_7291" data-name="Path 7291" d="M24.92,11.473a.579.579,0,0,1-.579-.579V9.158H15.079a.579.579,0,1,1,0-1.158H24.92a.579.579,0,0,1,.579.579v2.316A.579.579,0,0,1,24.92,11.473Z" transform="translate(-12.763 -8)" fill="#263238"/>
      </g>
      <g id="XMLID_1274_" transform="translate(2.316 8.104)">
        <ellipse id="XMLID_2380_" cx="0.5" cy="1" rx="0.5" ry="1" transform="translate(2.738 -0.476)" fill="#263238"/>
        <ellipse id="XMLID_2379_" cx="0.5" cy="1" rx="0.5" ry="1" transform="translate(-0.262 -0.476)" fill="#263238"/>
        <circle id="XMLID_2268_" cx="0.5" cy="0.5" r="0.5" transform="translate(-0.262 2.524)" fill="#263238"/>
        <circle id="XMLID_2262_" cx="0.5" cy="0.5" r="0.5" transform="translate(-0.262 4.524)" fill="#263238"/>
        <circle id="XMLID_2138_" cx="0.5" cy="0.5" r="0.5" transform="translate(-0.262 11.524)" fill="#263238"/>
        <circle id="XMLID_2261_" cx="0.5" cy="0.5" r="0.5" transform="translate(-0.262 9.524)" fill="#263238"/>
        <ellipse id="XMLID_2260_" cx="0.5" cy="1" rx="0.5" ry="1" transform="translate(-0.262 6.524)" fill="#263238"/>
        <circle id="XMLID_2959_" cx="0.5" cy="0.5" r="0.5" transform="translate(2.738 2.524)" fill="#263238"/>
        <circle id="XMLID_2672_" cx="0.5" cy="0.5" r="0.5" transform="translate(2.738 4.524)" fill="#263238"/>
        <ellipse id="XMLID_2574_" cx="0.5" cy="1" rx="0.5" ry="1" transform="translate(2.738 6.524)" fill="#263238"/>
        <circle id="XMLID_2958_" cx="0.5" cy="0.5" r="0.5" transform="translate(2.738 11.524)" fill="#263238"/>
        <circle id="XMLID_2573_" cx="0.5" cy="0.5" r="0.5" transform="translate(2.738 9.524)" fill="#263238"/>
      </g>
    </g>
    <g id="exchange_of_ideas_1_" transform="translate(1 1)">
      <g id="XMLID_2609_">
        <g id="XMLID_2631_" transform="translate(0 15.629)">
          <path id="Path_7292" data-name="Path 7292" d="M28.538,29.65a.579.579,0,0,1-.41-.169l-1.819-1.82a.579.579,0,1,1,.819-.819l1.1,1.1,1.337-5.35L24.21,23.926l1.1,1.1a.579.579,0,1,1-.819.819l-1.819-1.82a.578.578,0,0,1,.27-.97l7.278-1.819a.578.578,0,0,1,.7.7L29.1,29.212a.577.577,0,0,1-.408.418A.587.587,0,0,1,28.538,29.65Z" transform="translate(2.392 -13.44)" fill="#263238"/>
          <path id="Path_7293" data-name="Path 7293" d="M16.079,29.71a.579.579,0,1,1,0-1.158,13.824,13.824,0,0,0,9.641-3.889.579.579,0,1,1,.8.834A14.976,14.976,0,0,1,16.079,29.71Z" transform="translate(1.288 -12.921)" fill="#263238"/>
          <path id="Path_7294" data-name="Path 7294" d="M18.367,33.6A17.386,17.386,0,0,1,1,16.237q0-.6.041-1.2a.587.587,0,0,1,.617-.538.578.578,0,0,1,.538.617q-.038.556-.038,1.12A16.209,16.209,0,0,0,29.545,27.974a.579.579,0,1,1,.8.838A17.293,17.293,0,0,1,18.367,33.6Z" transform="translate(-1 -14.499)" fill="#263238"/>
        </g>
        <g id="transfer_11_" transform="translate(1.405)">
          <g id="XMLID_2627_">
            <path id="Path_7295" data-name="Path 7295" d="M2.793,11.935a.584.584,0,0,1-.41-.169.578.578,0,0,1-.152-.55L4.05,3.938a.579.579,0,0,1,.971-.27L6.841,5.489a.579.579,0,0,1-.819.819l-1.1-1.1L3.588,10.56,8.94,9.223l-1.1-1.1a.579.579,0,0,1,.819-.819l1.82,1.82a.579.579,0,0,1-.27.971L2.933,11.917A.58.58,0,0,1,2.793,11.935Z" transform="translate(-2.214 -0.606)" fill="#263238"/>
            <path id="Path_7296" data-name="Path 7296" d="M7.4,8.209a.579.579,0,0,1-.4-1A14.976,14.976,0,0,1,17.448,3a.579.579,0,1,1,0,1.158A13.824,13.824,0,0,0,7.807,8.047.574.574,0,0,1,7.4,8.209Z" transform="translate(-1.486 -0.684)" fill="#263238"/>
            <path id="Path_7297" data-name="Path 7297" d="M34.405,20.1h-.041a.58.58,0,0,1-.538-.617q.04-.554.039-1.116A16.209,16.209,0,0,0,6.478,6.629a.579.579,0,0,1-.8-.838A17.367,17.367,0,0,1,35.023,18.367c0,.4-.014.8-.041,1.195A.579.579,0,0,1,34.405,20.1Z" transform="translate(-1.695 -1)" fill="#263238"/>
          </g>
        </g>
        <g id="transaction_history_x2C__clock_1_" transform="translate(13.893 31.26)">
          <g id="chargeback_claim_x2C__chargeback_x2C__money_2_">
            <g id="XMLID_2623_">
              <circle id="XMLID_2626_" cx="0.5" cy="0.5" r="0.5" transform="translate(0.106 0.474)" fill="#263238"/>
            </g>
          </g>
        </g>
        <g id="transaction_history_x2C__clock" transform="translate(19.103 2.316)">
          <g id="chargeback_claim_x2C__chargeback_x2C__money_1_">
            <g id="XMLID_2614_">
              <circle id="XMLID_2620_" cx="0.579" cy="0.579" r="0.579" fill="#263238"/>
            </g>
          </g>
        </g>
      </g>
    </g>
  </g>
</svg>
