<svg xmlns="http://www.w3.org/2000/svg" width="37" height="37" viewBox="0 0 37 37">
  <g id="Crypto_x2C__cryptography_x2C__digital_x2C__key_x2C__public_signature_x2C__digital_key" transform="translate(-0.999 -0.994)">
    <path id="Path_7240" data-name="Path 7240" d="M23,27.885H20.454a.608.608,0,0,1-.428-.175l-4.086-4a11.607,11.607,0,1,1,7.87-8.113.611.611,0,1,1-1.18-.314,10.387,10.387,0,1,0-6.717,7.153.606.606,0,0,1,.622.143L20.7,26.663H23a.611.611,0,1,1,0,1.222ZM9.146,13.417a4.276,4.276,0,0,1-3.024-7.3h0a4.277,4.277,0,1,1,3.024,7.3Zm0-7.328a3.05,3.05,0,0,0-2.162.893h0a3.059,3.059,0,1,0,2.162-.893Z" transform="translate(0 0)" fill="#263238"/>
    <path id="Path_7241" data-name="Path 7241" d="M31.9,22.684a.607.607,0,0,1-.4-.153l-.945-.829H27.324a.61.61,0,0,1-.435-.182l-8.017-8.152a.611.611,0,0,1,.871-.857l7.839,7.969h3.2a.607.607,0,0,1,.4.153l1.117.981a.61.61,0,0,1-.4,1.069Z" transform="translate(3.928 2.516)" fill="#263238"/>
    <path id="Path_7242" data-name="Path 7242" d="M33.154,29.2a.609.609,0,0,1-.442-.189l-3.022-3.175H28.223a.613.613,0,0,1-.429-.175l-9.061-8.9a.611.611,0,0,1,.857-.872l8.883,8.725h1.479a.61.61,0,0,1,.442.189l3.2,3.364a.612.612,0,0,1-.442,1.033Z" transform="translate(3.896 3.268)" fill="#263238"/>
    <ellipse id="XMLID_522_" cx="0.5" cy="1" rx="0.5" ry="1" transform="translate(28.999 35.994)" fill="#263238"/>
    <circle id="XMLID_521_" cx="1" cy="1" r="1" transform="translate(35.999 24.994)" fill="#263238"/>
    <path id="Path_7243" data-name="Path 7243" d="M23.891,31.489a.612.612,0,0,1-.431-.177l-1.741-1.728a.609.609,0,0,1-.18-.434v-3.2l-2.759-2.771a.611.611,0,0,1,.866-.861l2.936,2.95a.61.61,0,0,1,.178.431v3.2l1.56,1.548a.61.61,0,0,1-.43,1.044Z" transform="translate(3.907 4.692)" fill="#263238"/>
    <path id="Path_7244" data-name="Path 7244" d="M29.683,31.917a.611.611,0,0,1-.422-.169L26,28.645a.609.609,0,0,1-.189-.442V26.725l-4.266-4.32a.611.611,0,1,1,.869-.86l4.443,4.5a.611.611,0,0,1,.177.43v1.466l3.071,2.923a.612.612,0,0,1,.022.864A.619.619,0,0,1,29.683,31.917Z" transform="translate(4.522 4.522)" fill="#263238"/>
    <path id="Path_7245" data-name="Path 7245" d="M23.222,24.142a.614.614,0,0,1-.433-.178l-5.481-5.481A1.833,1.833,0,0,1,19.9,15.892a.611.611,0,0,1-.864.864.611.611,0,0,0-.865.864L23.654,23.1a.61.61,0,0,1-.431,1.042Z" transform="translate(3.502 3.188)" fill="#263238"/>
    <g id="Group_1075" data-name="Group 1075" transform="translate(1 1.001)">
      <g id="Group_1071" data-name="Group 1071" transform="translate(19.552)">
        <circle id="Ellipse_42" data-name="Ellipse 42" cx="0.5" cy="0.5" r="0.5" transform="translate(0.447 -0.008)" fill="#263238"/>
      </g>
      <g id="Group_1072" data-name="Group 1072" transform="translate(0 19.552)">
        <circle id="Ellipse_43" data-name="Ellipse 43" cx="0.5" cy="0.5" r="0.5" transform="translate(-0.001 0.441)" fill="#263238"/>
      </g>
      <g id="Group_1073" data-name="Group 1073" transform="translate(1.685 21.526)">
        <path id="Path_7246" data-name="Path 7246" d="M12.3,23.362a14.854,14.854,0,0,0,2.072-.145.611.611,0,1,0-.171-1.21,13.555,13.555,0,0,1-10.8-3.237.611.611,0,0,0-.809.916A14.647,14.647,0,0,0,12.3,23.362Z" transform="translate(-2.379 -18.616)" fill="#263238"/>
      </g>
      <g id="Group_1074" data-name="Group 1074" transform="translate(21.353 1.505)">
        <path id="Path_7247" data-name="Path 7247" d="M22.638,14.935a.611.611,0,0,0,.6-.525,14.871,14.871,0,0,0,.145-2.074,14.615,14.615,0,0,0-3.853-9.907.611.611,0,0,0-.9.826,13.4,13.4,0,0,1,3.532,9.082,13.726,13.726,0,0,1-.133,1.9.611.611,0,0,0,.519.69C22.581,14.932,22.609,14.935,22.638,14.935Z" transform="translate(-18.474 -2.232)" fill="#263238"/>
      </g>
    </g>
  </g>
</svg>
