<svg id="Group_1380" data-name="Group 1380" xmlns="http://www.w3.org/2000/svg" xmlns:xlink="http://www.w3.org/1999/xlink" width="17.067" height="17.066" viewBox="0 0 17.067 17.066">
  <defs>
    <clipPath id="clip-path">
      <rect id="Rectangle_1133" data-name="Rectangle 1133" width="17.067" height="17.067" fill="#002662"/>
    </clipPath>
  </defs>
  <g id="Group_1379" data-name="Group 1379" clip-path="url(#clip-path)">
    <path id="Path_7333" data-name="Path 7333" d="M14.7,17.067h-.033c-.017-.021-.033-.044-.052-.063L8.631,11.019c-.03-.03-.064-.056-.1-.086-.04.037-.072.067-.1.1l-5.96,5.961c-.023.023-.043.05-.064.075H2.371c-.039-.046-.074-.095-.116-.137L.136,14.808c-.041-.041-.08-.085-.136-.145L6.153,8.509.039,2.393,2.432,0,8.574,6.144,14.7.019,16.93,2.252c.042.042.091.078.137.116V2.4c-.021.017-.044.033-.063.052L11.02,8.439c-.03.03-.056.064-.086.1.037.04.067.072.1.1l5.96,5.961c.023.023.05.043.075.064V14.7a.828.828,0,0,0-.09.068q-1.1,1.1-2.208,2.208a.812.812,0,0,0-.068.09" fill="#002662"/>
  </g>
</svg>
