<svg xmlns="http://www.w3.org/2000/svg" width="29.749" height="41.639" viewBox="0 0 29.749 41.639">
  <path id="Icon_ionic-md-keypad" data-name="Icon ionic-md-keypad" d="M21.625,36.322a3.784,3.784,0,1,0,3.765,3.784A3.783,3.783,0,0,0,21.625,36.322ZM10.515,2.25A3.784,3.784,0,1,0,14.28,6.034,3.783,3.783,0,0,0,10.515,2.25Zm0,11.36a3.784,3.784,0,1,0,3.765,3.784A3.783,3.783,0,0,0,10.515,13.61Zm0,11.36a3.784,3.784,0,1,0,3.765,3.784A3.783,3.783,0,0,0,10.515,24.971ZM32.734,9.827a3.788,3.788,0,1,0-3.765-3.793A3.783,3.783,0,0,0,32.734,9.827ZM21.625,24.971a3.784,3.784,0,1,0,3.765,3.784A3.783,3.783,0,0,0,21.625,24.971Zm11.109,0A3.784,3.784,0,1,0,36.5,28.755,3.783,3.783,0,0,0,32.734,24.971Zm0-11.36A3.784,3.784,0,1,0,36.5,17.394,3.783,3.783,0,0,0,32.734,13.61Zm-11.109,0a3.784,3.784,0,1,0,3.765,3.784A3.783,3.783,0,0,0,21.625,13.61Zm0-11.36A3.784,3.784,0,1,0,25.39,6.034,3.783,3.783,0,0,0,21.625,2.25Z" transform="translate(-6.75 -2.25)" fill="#001940"/>
</svg>
