<svg xmlns="http://www.w3.org/2000/svg" width="19.124" height="14.872" viewBox="0 0 19.124 14.872">
  <path id="Icon_awesome-home" data-name="Icon awesome-home" d="M9.307,6.112,3.187,11.153v5.441a.531.531,0,0,0,.531.531l3.72-.01a.531.531,0,0,0,.529-.531V13.407a.531.531,0,0,1,.531-.531h2.125a.531.531,0,0,1,.531.531v3.175a.531.531,0,0,0,.531.533l3.719.01a.531.531,0,0,0,.531-.531V11.149L9.815,6.112A.4.4,0,0,0,9.307,6.112Zm9.669,3.426L16.2,7.25v-4.6a.4.4,0,0,0-.4-.4H13.943a.4.4,0,0,0-.4.4V5.062L10.572,2.617a1.594,1.594,0,0,0-2.025,0L.144,9.538A.4.4,0,0,0,.09,10.1l.847,1.029a.4.4,0,0,0,.561.054L9.307,4.75a.4.4,0,0,1,.508,0l7.809,6.432a.4.4,0,0,0,.561-.053l.847-1.029a.4.4,0,0,0-.056-.562Z" transform="translate(0.001 -2.253)" fill="#fff"/>
</svg>
