<?xml version="1.0" encoding="utf-8"?>
<!-- Generator: Adobe Illustrator 26.0.2, SVG Export Plug-In . SVG Version: 6.00 Build 0)  -->
<svg version="1.1" id="Laag_1" xmlns="http://www.w3.org/2000/svg" xmlns:xlink="http://www.w3.org/1999/xlink" x="0px" y="0px"
	 viewBox="0 0 14.3 14.1" style="enable-background:new 0 0 14.3 14.1;" xml:space="preserve">
<style type="text/css">
	.st0{fill:#FFFFFF;}
</style>
<g>
	<path class="st0" d="M7.2,5.3C7.2,5.3,7.2,5.3,7.2,5.3c-1,0-1.8,0.8-1.8,1.8c0,1,0.8,1.8,1.8,1.8S9,8,9,7C9,6.1,8.2,5.3,7.2,5.3z"
		/>
	<path class="st0" d="M7.2,10.5C7.2,10.5,7.2,10.5,7.2,10.5c-1,0-1.8,0.8-1.8,1.8c0,1,0.8,1.8,1.8,1.8c1,0,1.8-0.8,1.8-1.8
		C9,11.3,8.2,10.5,7.2,10.5z"/>
	<path class="st0" d="M1.8,10.5C1.8,10.5,1.8,10.5,1.8,10.5c-1,0-1.8,0.8-1.8,1.8s0.8,1.8,1.8,1.8c1,0,1.8-0.8,1.8-1.8
		C3.6,11.3,2.8,10.5,1.8,10.5z"/>
	<path class="st0" d="M12.6,10.5C12.5,10.5,12.5,10.5,12.6,10.5c-1,0-1.8,0.8-1.8,1.8c0,1,0.8,1.8,1.8,1.8c1,0,1.8-0.8,1.8-1.8
		C14.3,11.3,13.5,10.5,12.6,10.5z"/>
	<path class="st0" d="M12.6,3.6C12.6,3.6,12.6,3.6,12.6,3.6c1,0,1.8-0.8,1.8-1.8S13.5,0,12.5,0c-1,0-1.8,0.8-1.8,1.8
		C10.8,2.8,11.6,3.6,12.6,3.6z"/>
	<path class="st0" d="M12.6,5.3C12.5,5.3,12.5,5.3,12.6,5.3c-1,0-1.8,0.8-1.8,1.8c0,1,0.8,1.8,1.8,1.8c1,0,1.8-0.8,1.8-1.8
		C14.3,6.1,13.5,5.3,12.6,5.3z"/>
</g>
</svg>
