<svg xmlns="http://www.w3.org/2000/svg" width="13.835" height="14.355" viewBox="0 0 13.835 14.355">
  <g id="Group_1250" data-name="Group 1250" transform="translate(0)">
    <g id="Icon_ionic-md-contacts" data-name="Icon ionic-md-contacts" transform="translate(0 0)">
      <path id="Path_7098" data-name="Path 7098" d="M12,24.183a5.756,5.756,0,0,1-5.672,0c-2.22.677-3.58,2.921-4.081,4.9H16.085C15.584,27.1,14.224,24.86,12,24.183Z" transform="translate(-2.25 -14.726)"/>
      <path id="Path_7099" data-name="Path 7099" d="M9.393,8.44a4.254,4.254,0,1,0,4.255,4.254A4.255,4.255,0,0,0,9.393,8.44Zm0,7.495A3.288,3.288,0,0,1,6.419,13.9h5.948A3.288,3.288,0,0,1,9.393,15.935Z" transform="translate(-2.476 -8.44)"/>
    </g>
  </g>
</svg>
