<?xml version="1.0" encoding="utf-8"?>
<!-- Generator: Adobe Illustrator 26.0.2, SVG Export Plug-In . SVG Version: 6.00 Build 0)  -->
<svg version="1.1" id="Layer_1" xmlns="http://www.w3.org/2000/svg" xmlns:xlink="http://www.w3.org/1999/xlink" x="0px" y="0px"
	 viewBox="0 0 14.1 14.3" style="enable-background:new 0 0 14.1 14.3;" xml:space="preserve">
<style type="text/css">
	.st0{fill:#FFFFFF;}
</style>
<path id="Icon_ionic-md-keypad" class="st0" d="M1.8,10.8c-1,0-1.8,0.8-1.8,1.8s0.8,1.8,1.8,1.8c1,0,1.8-0.8,1.8-1.8c0,0,0,0,0,0
	C3.6,11.6,2.8,10.8,1.8,10.8z M12.3,3.6c1,0,1.8-0.8,1.8-1.8S13.3,0,12.3,0c-1,0-1.8,0.8-1.8,1.8c0,0,0,0,0,0
	C10.5,2.8,11.3,3.6,12.3,3.6z M7,10.8c-1,0-1.8,0.8-1.8,1.8S6,14.3,7,14.3c1,0,1.8-0.8,1.8-1.8c0,0,0,0,0,0C8.8,11.6,8,10.8,7,10.8z
	 M12.3,10.8c-1,0-1.8,0.8-1.8,1.8s0.8,1.8,1.8,1.8c1,0,1.8-0.8,1.8-1.8c0,0,0,0,0,0C14.1,11.6,13.3,10.8,12.3,10.8L12.3,10.8z
	 M12.3,5.4c-1,0-1.8,0.8-1.8,1.8c0,1,0.8,1.8,1.8,1.8c1,0,1.8-0.8,1.8-1.8c0,0,0,0,0,0C14.1,6.2,13.3,5.4,12.3,5.4L12.3,5.4z M7,5.4
	c-1,0-1.8,0.8-1.8,1.8S6,9,7,9s1.8-0.8,1.8-1.8c0,0,0,0,0,0C8.8,6.2,8,5.4,7,5.4z"/>
</svg>
