<svg xmlns="http://www.w3.org/2000/svg" width="22.117" height="13.275" viewBox="0 0 22.117 13.275">
  <path id="Icon_awesome-handshake" data-name="Icon awesome-handshake" d="M15.022,4.5H12.054a1.105,1.105,0,0,0-.746.29L7.91,7.9s-.007.01-.01.014a1.375,1.375,0,0,0-.073,1.935,1.441,1.441,0,0,0,1.939.093s.01,0,.014-.007l2.761-2.53a.553.553,0,1,1,.746.816l-.9.826,5.032,4.085a2.49,2.49,0,0,1,.273.266V6.712L15.8,4.825a1.1,1.1,0,0,0-.781-.325ZM18.8,6.719v7.737a1.1,1.1,0,0,0,1.106,1.106h2.212V6.719Zm1.659,7.737a.553.553,0,1,1,.553-.553A.555.555,0,0,1,20.458,14.456ZM0,15.558H2.212a1.1,1.1,0,0,0,1.106-1.106V6.719H0ZM1.659,13.35a.553.553,0,1,1-.553.553A.555.555,0,0,1,1.659,13.35Zm15.064.643L11.563,9.8l-1.037.95A2.487,2.487,0,0,1,7.164,7.088L9.991,4.5h-2.9a1.1,1.1,0,0,0-.781.325L4.423,6.712v7.737h.632l3.127,2.83a2.211,2.211,0,0,0,3.11-.321l.007-.007.619.536a1.284,1.284,0,0,0,1.807-.187l1.085-1.334.187.152a1.1,1.1,0,0,0,1.555-.162l.328-.4a1.108,1.108,0,0,0-.159-1.559Z" transform="translate(0 -4.5)" fill="#fff"/>
</svg>
