<svg xmlns="http://www.w3.org/2000/svg" width="14.352" height="16.744" viewBox="0 0 14.352 16.744">
  <path id="Icon_ionic-md-clipboard" data-name="Icon ionic-md-clipboard" d="M17.257,4.044H13.993a2.393,2.393,0,0,0-4.633,0H6.095A1.6,1.6,0,0,0,4.5,5.639V17.4a1.6,1.6,0,0,0,1.595,1.595H17.257A1.6,1.6,0,0,0,18.852,17.4V5.639A1.6,1.6,0,0,0,17.257,4.044Zm-5.581,0a.8.8,0,1,1-.8.8A.8.8,0,0,1,11.676,4.044ZM17.357,17.5H5.995V5.539H7.49V8.23h8.372V5.539h1.495Z" transform="translate(-4.5 -2.25)" fill="#fff"/>
</svg>
