<svg xmlns="http://www.w3.org/2000/svg" width="18.75" height="12.5" viewBox="0 0 18.75 12.5">
  <path id="Icon_awesome-newspaper" data-name="Icon awesome-newspaper" d="M17.969,4.5H2.865a.781.781,0,0,0-.781.781v.26H.781A.781.781,0,0,0,0,6.323v8.854A1.823,1.823,0,0,0,1.823,17H17.188a1.563,1.563,0,0,0,1.563-1.563V5.281A.781.781,0,0,0,17.969,4.5ZM1.823,15.438a.26.26,0,0,1-.26-.26V7.1h.521v8.073A.26.26,0,0,1,1.823,15.438Zm7.682-.521H4.557a.391.391,0,0,1-.391-.391v-.26a.391.391,0,0,1,.391-.391H9.505a.391.391,0,0,1,.391.391v.26A.391.391,0,0,1,9.505,14.917Zm6.771,0H11.328a.391.391,0,0,1-.391-.391v-.26a.391.391,0,0,1,.391-.391h4.948a.391.391,0,0,1,.391.391v.26A.391.391,0,0,1,16.276,14.917ZM9.505,11.792H4.557a.391.391,0,0,1-.391-.391v-.26a.391.391,0,0,1,.391-.391H9.505a.391.391,0,0,1,.391.391v.26A.391.391,0,0,1,9.505,11.792Zm6.771,0H11.328a.391.391,0,0,1-.391-.391v-.26a.391.391,0,0,1,.391-.391h4.948a.391.391,0,0,1,.391.391v.26A.391.391,0,0,1,16.276,11.792Zm0-3.125H4.557a.391.391,0,0,1-.391-.391v-1.3a.391.391,0,0,1,.391-.391H16.276a.391.391,0,0,1,.391.391v1.3A.391.391,0,0,1,16.276,8.667Z" transform="translate(0 -4.5)" fill="#fff"/>
</svg>
