<svg xmlns="http://www.w3.org/2000/svg" viewBox="0 0 21.52 21.77"><defs><style>.cls-1{fill:#002662;}</style></defs><g id="Laag_2" data-name="Laag 2"><g id="Laag_1-2" data-name="Laag 1"><rect class="cls-1" x="6.69" y="15.38" width="3.05" height="1.02"/><rect class="cls-1" x="6.69" y="13.35" width="3.05" height="1.02"/><rect class="cls-1" x="6.89" y="11.3" width="2.9" height="0.97"/><path class="cls-1" d="M10.54,0V7.07h1.22V1.71l8.54,3.1V20.55H13.11V8H3.48V20.55H1.22V12.68H2.57V11.46H0V21.77H21.52V4ZM4.7,9.2h7.19V20.55H4.7Z"/><polygon class="cls-1" points="15.99 4.5 14.89 4.5 14.77 4.5 14.77 4.63 14.77 19.25 15.86 19.25 15.99 19.25 15.99 4.5"/><polygon class="cls-1" points="18.23 5.47 17.14 5.47 17.02 5.47 17.02 5.59 17.02 19.25 18.11 19.25 18.23 19.25 18.23 5.47"/><rect class="cls-1" x="6.69" y="17.42" width="3.05" height="1.02"/></g></g></svg>