<?xml version="1.0" encoding="utf-8"?>
<!-- Generator: Adobe Illustrator 26.0.2, SVG Export Plug-In . SVG Version: 6.00 Build 0)  -->
<svg version="1.1" id="Laag_1" xmlns="http://www.w3.org/2000/svg" xmlns:xlink="http://www.w3.org/1999/xlink" x="0px" y="0px"
	 viewBox="0 0 21.5 21.8" style="enable-background:new 0 0 21.5 21.8;" xml:space="preserve">
<style type="text/css">
	.st0{fill:#FFFFFF;}
</style>
<g id="Laag_2_00000173137043335816415270000006736705644064526223_">
	<g id="Laag_1-2">
		<rect x="6.7" y="15.4" class="st0" width="3" height="1"/>
		<rect x="6.7" y="13.4" class="st0" width="3" height="1"/>
		<rect x="6.9" y="11.3" class="st0" width="2.9" height="1"/>
		<path class="st0" d="M10.5,0v7.1h1.2V1.7l8.5,3.1v15.7h-7.2V8H3.5v12.5H1.2v-7.9h1.3v-1.2H0v10.3h21.5V4L10.5,0z M4.7,9.2h7.2
			v11.3H4.7V9.2z"/>
		<polygon class="st0" points="16,4.5 14.9,4.5 14.8,4.5 14.8,4.6 14.8,19.2 15.9,19.2 16,19.2 		"/>
		<polygon class="st0" points="18.2,5.5 17.1,5.5 17,5.5 17,5.6 17,19.2 18.1,19.2 18.2,19.2 		"/>
		<rect x="6.7" y="17.4" class="st0" width="3" height="1"/>
	</g>
</g>
</svg>
