<svg xmlns="http://www.w3.org/2000/svg" width="17.062" height="13.268" viewBox="0 0 17.062 13.268">
  <path id="Icon_awesome-home" data-name="Icon awesome-home" d="M8.3,5.7l-5.461,4.5v4.854a.474.474,0,0,0,.474.474l3.319-.009a.474.474,0,0,0,.472-.474V12.2a.474.474,0,0,1,.474-.474h1.9a.474.474,0,0,1,.474.474v2.833a.474.474,0,0,0,.474.475l3.318.009a.474.474,0,0,0,.474-.474V10.19L8.757,5.7A.361.361,0,0,0,8.3,5.7ZM16.93,8.753,14.453,6.711v-4.1a.355.355,0,0,0-.355-.355H12.439a.355.355,0,0,0-.355.355V4.76L9.432,2.578a1.422,1.422,0,0,0-1.807,0L.128,8.753a.355.355,0,0,0-.047.5l.755.918a.355.355,0,0,0,.5.048L8.3,4.481a.361.361,0,0,1,.453,0l6.967,5.738a.355.355,0,0,0,.5-.047l.755-.918a.355.355,0,0,0-.05-.5Z" transform="translate(0.001 -2.254)" fill="#fff"/>
</svg>
