<?xml version="1.0" encoding="utf-8"?>
<!-- Generator: Adobe Illustrator 26.0.2, SVG Export Plug-In . SVG Version: 6.00 Build 0)  -->
<svg version="1.1" id="Laag_1" xmlns="http://www.w3.org/2000/svg" xmlns:xlink="http://www.w3.org/1999/xlink" x="0px" y="0px"
	 viewBox="0 0 24.6 22.2" style="enable-background:new 0 0 24.6 22.2;" xml:space="preserve">
<style type="text/css">
	.st0{fill:#002662;}
</style>
<g>
	<polygon class="st0" points="9.4,21 9.4,21 9.4,21 	"/>
	<path class="st0" d="M15.7,1.5L15.7,1.5c-0.4-0.3-0.9-0.4-1.4-0.4c-0.4,0-0.8,0.1-1.2,0.3L2.6,6.3l0,0C1.5,6.8,0.9,7.8,0.9,8.9
		c0,0.4,0.1,0.8,0.3,1.2l0,0l4.4,9.5l0,0c0.5,1.1,1.5,1.7,2.6,1.7c0.4,0,0.8-0.1,1.2-0.3h0l10.5-4.9l0,0c0.9-0.4,1.5-1.2,1.6-2.1
		l0,0l1.5-8.4L15.7,1.5z M19.9,13.8L19.9,13.8c-0.1,0.4-0.3,0.8-0.7,0.9L8.8,19.6l0,0c-0.2,0.1-0.4,0.1-0.5,0.1
		c-0.5,0-0.9-0.3-1.2-0.7L2.6,9.5C2.5,9.3,2.5,9.1,2.5,8.9c0-0.5,0.3-0.9,0.7-1.2l0,0l10.4-4.9l0,0c0.2-0.1,0.4-0.1,0.5-0.1
		c0.2,0,0.4,0.1,0.6,0.2l0,0l6.4,3.6L19.9,13.8z"/>
</g>
</svg>
