<svg xmlns="http://www.w3.org/2000/svg" width="20" height="20" viewBox="0 0 20 20">
  <g id="Group_1018" data-name="Group 1018" transform="translate(-230.39 -819.966)">
    <g id="XMLID_2298_" transform="translate(230.39 819.966)">
      <path id="XMLID_2301_" d="M20,3.529V0H16.471V1.176H3.529V0H0V3.529H1.176V16.471H0V20H3.529V18.824H16.471V20H20V16.471H18.824V3.529ZM17.647,16.471H16.471v1.176H3.529V16.471H2.353V3.529H3.529V2.353H16.471V3.529h1.176Z" fill="#002662"/>
      <path id="XMLID_2302_" d="M0,0H6.4V1.28H0Z" transform="translate(4.861 9.387) rotate(-45)" fill="#002662"/>
      <path id="XMLID_2303_" d="M0,0H6.4V1.28H0Z" transform="translate(9.706 14.233) rotate(-45)" fill="#002662"/>
      <path id="XMLID_2304_" d="M0,0H10.239V1.28H0Z" transform="translate(5.926 13.167) rotate(-45)" fill="#002662"/>
    </g>
  </g>
</svg>
