<svg xmlns="http://www.w3.org/2000/svg" width="35.91" height="35.91" viewBox="0 0 35.91 35.91">
  <g id="Group_1019" data-name="Group 1019" transform="translate(-227.986 -818.367)">
    <g id="XMLID_2006_" transform="translate(228.236 818.617)">
      <path id="XMLID_2018_" d="M35.41,28.12H30.2V5.207H7.29V0H5.207V5.207H0V7.29H5.207V30.2H28.12V35.41H30.2V30.2H35.41Zm-28.12,0V7.29H28.12V28.12Z" fill="#002662" stroke="#001f50" stroke-width="0.5"/>
      <path id="XMLID_2019_" d="M0,0H2.19V1.187H0Z" transform="translate(32.984 1.586) rotate(-45)" fill="#002662"/>
      <path id="XMLID_2020_" d="M0,0H2.218V1.187H0Z" transform="translate(22.251 12.317) rotate(-45)" fill="#002662"/>
      <path id="XMLID_2021_" d="M0,0H2.227V1.187H0Z" transform="translate(16.437 18.13) rotate(-45)" fill="#002662"/>
      <path id="XMLID_2022_" d="M0,0H2.227V1.187H0Z" transform="translate(10.607 23.958) rotate(-45)" fill="#002662"/>
      <path id="XMLID_2023_" d="M0,0H2.17V1.187H0Z" transform="translate(0.097 34.47) rotate(-45)" fill="#002662"/>
    </g>
  </g>
</svg>
