<svg xmlns="http://www.w3.org/2000/svg" width="35.734" height="36.486" viewBox="0 0 35.734 36.486">
  <g id="client_x2C__customer_x2C__profil_x2C__user_x2C__care_x2C__hand" transform="translate(-1.001 -1)">
    <g id="XMLID_3819_" transform="translate(1.001 20.636)">
      <g id="data_base_hand_file_3_">
        <g id="profit_3_" transform="translate(6.292)">
          <g id="XMLID_3367_">
            <path id="Path_7298" data-name="Path 7298" d="M6.782,20.86a.6.6,0,0,1-.394-.146.61.61,0,0,1-.069-.857l.3-.354a7.849,7.849,0,0,1,9.336-1.414.608.608,0,0,1-.575,1.071,6.632,6.632,0,0,0-7.868,1.168l-.269.319A.606.606,0,0,1,6.782,20.86Z" transform="translate(-6.174 -17.145)" fill="#263238"/>
            <path id="Path_7299" data-name="Path 7299" d="M23.11,22.865H14.116a.608.608,0,0,1,0-1.216H22.46a2.835,2.835,0,0,0-.4-1.116c-.559-.873-1.649-1.316-3.24-1.316H14.277a.608.608,0,1,1,0-1.216h4.545c2.031,0,3.466.631,4.264,1.875a4.365,4.365,0,0,1,.634,2.381A.609.609,0,0,1,23.11,22.865Z" transform="translate(-4.589 -16.96)" fill="#263238"/>
          </g>
        </g>
        <g id="XMLID_3338_" transform="translate(0 0.941)">
          <path id="Path_7300" data-name="Path 7300" d="M33.357,18.32c-1.182-.647-2.882-.51-4.817.4l-3.38,1.755-1.4.253a3.843,3.843,0,0,1,.27,1.187l1.44-.26a.616.616,0,0,0,.173-.058l3.439-1.787c1.529-.715,2.875-.868,3.695-.421a1.9,1.9,0,0,1,.9,1.287L27.37,24.389l-6.5,1.828a8.406,8.406,0,0,1-2.274.314H12.58a4.226,4.226,0,0,0-2.43.865l-.87.409a.468.468,0,0,0-.063.046l.9.9.619-.291a.6.6,0,0,0,.141-.092,3.035,3.035,0,0,1,1.7-.624H18.6a9.679,9.679,0,0,0,2.605-.359l6.574-1.85a.625.625,0,0,0,.144-.062l6.74-3.972a.608.608,0,0,0,.294-.6A3.212,3.212,0,0,0,33.357,18.32Z" transform="translate(0.776 -17.919)" fill="#263238"/>
          <path id="XMLID_3340_" d="M9.777,33.108a.61.61,0,0,1-.86,0h0a.61.61,0,0,1,0-.86l3.505-3.511-6.88-6.88-3.5,3.51a.609.609,0,0,1-.86,0h0a.609.609,0,0,1,0-.86l3.876-3.881a.707.707,0,0,1,.938-.04l7.74,7.74a.661.661,0,0,1-.077.9Z" transform="translate(-1.001 -17.377)" fill="#263238"/>
        </g>
      </g>
      <path id="Path_7301" data-name="Path 7301" d="M17.923,30.081H16.589a.608.608,0,1,1,0-1.216h1.334a21.673,21.673,0,0,0,13.489-4.732.608.608,0,0,1,.76.95A22.891,22.891,0,0,1,17.923,30.081Z" transform="translate(2.238 -15.663)" fill="#263238"/>
      <circle id="XMLID_3331_" cx="0.608" cy="0.608" r="0.608" transform="translate(15.787 13.202)" fill="#263238"/>
    </g>
    <g id="XMLID_3269_" transform="translate(13.162 1)">
      <path id="Path_7302" data-name="Path 7302" d="M20.278,18.241a9.646,9.646,0,0,1-7.019-3,.608.608,0,0,1-.14-.607,2.936,2.936,0,0,1,1.894-1.925l3.2-1.382a.612.612,0,0,1,.533.026l.651.358a1.851,1.851,0,0,0,1.76,0l.652-.36a.6.6,0,0,1,.533-.026l3.34,1.435a2.844,2.844,0,0,1,1.755,1.877.605.605,0,0,1-.141.6A9.647,9.647,0,0,1,20.278,18.241ZM14.42,14.678a8.486,8.486,0,0,0,11.718,0,1.586,1.586,0,0,0-.868-.776l-3.135-1.343-.392.216a3.091,3.091,0,0,1-2.932,0l-.389-.214-2.994,1.288A1.771,1.771,0,0,0,14.42,14.678Z" transform="translate(-10.548 1.221)" fill="#263238"/>
      <g id="XMLID_3395_">
        <g id="XMLID_3397_">
          <g id="XMLID_3398_">
            <g id="XMLID_3493_">
              <g id="XMLID_3494_">
                <g id="XMLID_3495_">
                  <path id="XMLID_3496_" d="M12.524,15.29a.6.6,0,0,1-.547-.344A9.627,9.627,0,0,1,11,10.73a9.73,9.73,0,1,1,18.5,4.217.609.609,0,0,1-1.1-.528,8.439,8.439,0,0,0,.838-3.689,8.513,8.513,0,0,0-17.027,0,8.419,8.419,0,0,0,.855,3.689.609.609,0,0,1-.547.872Z" transform="translate(-11 -1)" fill="#263238"/>
                </g>
              </g>
            </g>
          </g>
        </g>
      </g>
      <g id="XMLID_3270_" transform="translate(6.081 4.258)">
        <g id="XMLID_3273_" transform="translate(0 0)">
          <g id="XMLID_3323_">
            <g id="XMLID_3361_">
              <g id="XMLID_3390_">
                <g id="XMLID_3391_">
                  <path id="Path_7303" data-name="Path 7303" d="M21.473,13.974a.608.608,0,0,1-.608-.608v-.973a.6.6,0,0,1,.241-.484,2.414,2.414,0,0,0,.975-1.935V8.758c0-1.885-.118-3.04-2.432-3.04s-2.432,1.155-2.432,3.04V9.974a2.414,2.414,0,0,0,.975,1.935.6.6,0,0,1,.241.484v.973a.608.608,0,0,1-1.216,0V12.68A3.607,3.607,0,0,1,16,9.974V8.758C16,7.166,16,4.5,19.649,4.5S23.3,7.166,23.3,8.758V9.974a3.609,3.609,0,0,1-1.216,2.706v.686A.608.608,0,0,1,21.473,13.974Z" transform="translate(-16 -4.501)" fill="#263238"/>
                </g>
              </g>
            </g>
          </g>
        </g>
      </g>
    </g>
  </g>
</svg>
