<svg xmlns="http://www.w3.org/2000/svg" width="18" height="17.999" viewBox="0 0 18 17.999">
  <path id="Icon_awesome-linkedin-in" data-name="Icon awesome-linkedin-in" d="M4.029,18H.3V5.983H4.029ZM2.161,4.343A2.171,2.171,0,1,1,4.322,2.162,2.179,2.179,0,0,1,2.161,4.343ZM18,18H14.272V12.15c0-1.394-.028-3.182-1.94-3.182-1.94,0-2.237,1.515-2.237,3.082V18H6.367V5.983H9.946V7.622H10a3.921,3.921,0,0,1,3.531-1.941C17.305,5.681,18,8.168,18,11.4V18Z" transform="translate(0 -0.001)" fill="#001940"/>
</svg>
