<svg xmlns="http://www.w3.org/2000/svg" width="164" height="85" viewBox="0 0 164 85">
  <g id="Group_1366" data-name="Group 1366" transform="translate(-11056 14208)">
    <g id="Group_1361" data-name="Group 1361" transform="translate(263 -289)">
      <g id="Group_1360" data-name="Group 1360" transform="translate(10793 -13919)">
        <rect id="Rectangle_1087" data-name="Rectangle 1087" width="164" height="55" transform="translate(0 0)" fill="#002d62"/>
        <rect id="Rectangle_1088" data-name="Rectangle 1088" width="164" height="27" transform="translate(0 58)" fill="#6578a2"/>
        <path id="Path_7326" data-name="Path 7326" d="M30.829,20.595c0-14.155-6.389-17.8-19.7-17.8H-.255v.9a18.706,18.706,0,0,1,2.362.475c2.9.739,3.006,1.849,3.006,4.648V38.342h5.8C24.118,38.342,30.829,34.75,30.829,20.595Zm-5.261,0c0,9.032-2.738,15.687-12.938,15.687-2.953,0-2.845-1.532-2.845-3.909V8.816c0-3.222.268-3.961,3.651-3.961C23.474,4.855,25.568,12.2,25.568,20.595Z" transform="translate(19.498 7)" fill="#fff" stroke="#fff" stroke-width="0.5"/>
        <path id="Path_7327" data-name="Path 7327" d="M24.285,27.536c0-11.2-16.878-10.178-16.878-18.259,0-3.529,3.018-5.115,6.189-5.115a20.352,20.352,0,0,1,8.439,2.1V2.678a37.69,37.69,0,0,0-7.57-.818c-5.575,0-11.15,2.2-11.15,8.644,0,10.741,16.418,9.462,16.418,18.106,0,4.552-2.864,6.5-7.161,6.5a21.811,21.811,0,0,1-8.9-2.25v3.529a36.958,36.958,0,0,0,8.183,1.023C18.2,37.407,24.285,34.747,24.285,27.536Z" transform="translate(118.148 7.935)" fill="#fff" stroke="#fff" stroke-width="0.5"/>
        <path id="Path_7328" data-name="Path 7328" d="M27.833,38.342l-10.669-17.8c5.071-.687,9.138-2.905,9.138-8.609C26.3,4.38,21.019,2.8,14.523,2.8H-.425v.9c3.644.687,5.335.581,5.335,4.7V38.342H9.5V20.859h2.641L22.657,38.342ZM21.125,11.4c0,6.233-4.437,7.395-9.666,7.395H9.5V8.394c0-3.328.423-3.539,3.75-3.539C17.586,4.855,21.125,6.545,21.125,11.4Z" transform="translate(71 7)" fill="#fff" stroke="#fff" stroke-width="0.5"/>
        <line id="Line_247" data-name="Line 247" y2="40" transform="translate(59.5 7.5)" fill="none" stroke="#fff" stroke-width="1"/>
        <line id="Line_248" data-name="Line 248" y2="40" transform="translate(110.908 7.5)" fill="none" stroke="#fff" stroke-width="1"/>
      </g>
    </g>
  </g>
</svg>
