<svg xmlns="http://www.w3.org/2000/svg" width="18" height="12.461" viewBox="0 0 18 12.461">
  <g id="Icon_ionic-ios-mail" data-name="Icon ionic-ios-mail" transform="translate(-3.375 -7.875)">
    <path id="Path_7186" data-name="Path 7186" d="M21.227,10.34l-4.656,4.742a.084.084,0,0,0,0,.121l3.258,3.47a.561.561,0,0,1,0,.8.564.564,0,0,1-.8,0l-3.245-3.457a.089.089,0,0,0-.125,0l-.792.8a3.484,3.484,0,0,1-2.484,1.047,3.554,3.554,0,0,1-2.536-1.077l-.762-.774a.089.089,0,0,0-.125,0L5.72,19.47a.564.564,0,0,1-.8,0,.561.561,0,0,1,0-.8L8.182,15.2a.092.092,0,0,0,0-.121L3.522,10.34a.085.085,0,0,0-.147.061V19.89A1.389,1.389,0,0,0,4.76,21.274H19.99a1.389,1.389,0,0,0,1.385-1.385V10.4A.087.087,0,0,0,21.227,10.34Z" transform="translate(0 -0.938)" fill="#001940"/>
    <path id="Path_7187" data-name="Path 7187" d="M12.7,15.8a2.352,2.352,0,0,0,1.692-.71l6.789-6.91a1.36,1.36,0,0,0-.857-.3H5.082a1.351,1.351,0,0,0-.857.3l6.789,6.91A2.353,2.353,0,0,0,12.7,15.8Z" transform="translate(-0.327 0)" fill="#001940"/>
  </g>
</svg>
