<svg xmlns="http://www.w3.org/2000/svg" width="12.034" height="16.843" viewBox="0 0 12.034 16.843">
  <path id="Icon_ionic-md-keypad" data-name="Icon ionic-md-keypad" d="M12.767,16.032a1.531,1.531,0,1,0,1.523,1.531A1.53,1.53,0,0,0,12.767,16.032ZM8.273,2.25A1.531,1.531,0,1,0,9.8,3.781,1.53,1.53,0,0,0,8.273,2.25Zm0,4.6A1.531,1.531,0,1,0,9.8,8.376,1.53,1.53,0,0,0,8.273,6.845Zm0,4.6A1.531,1.531,0,1,0,9.8,12.971,1.53,1.53,0,0,0,8.273,11.441Zm8.988-6.126a1.532,1.532,0,1,0-1.523-1.534A1.53,1.53,0,0,0,17.261,5.315Zm-4.494,6.126a1.531,1.531,0,1,0,1.523,1.531A1.53,1.53,0,0,0,12.767,11.441Zm4.494,0a1.531,1.531,0,1,0,1.523,1.531A1.53,1.53,0,0,0,17.261,11.441Zm0-4.6a1.531,1.531,0,1,0,1.523,1.531A1.53,1.53,0,0,0,17.261,6.845Zm-4.494,0A1.531,1.531,0,1,0,14.29,8.376,1.53,1.53,0,0,0,12.767,6.845Zm0-4.6A1.531,1.531,0,1,0,14.29,3.781,1.53,1.53,0,0,0,12.767,2.25Z" transform="translate(-6.75 -2.25)"/>
</svg>
