<svg xmlns="http://www.w3.org/2000/svg" width="19.515" height="11.713" viewBox="0 0 19.515 11.713">
  <path id="Icon_awesome-handshake" data-name="Icon awesome-handshake" d="M13.255,4.5H10.636a.975.975,0,0,0-.659.256L6.98,7.5s-.006.009-.009.012A1.213,1.213,0,0,0,6.907,9.22,1.272,1.272,0,0,0,8.617,9.3s.009,0,.012-.006l2.436-2.232a.488.488,0,1,1,.659.72l-.8.729,4.44,3.6a2.2,2.2,0,0,1,.241.235v-5.9L13.944,4.787a.969.969,0,0,0-.689-.287Zm3.333,1.958v6.827a.975.975,0,0,0,.976.976h1.952v-7.8Zm1.464,6.827a.488.488,0,1,1,.488-.488A.489.489,0,0,1,18.052,13.285ZM0,14.258H1.952a.975.975,0,0,0,.976-.976V6.458H0Zm1.464-1.948a.488.488,0,1,1-.488.488A.489.489,0,0,1,1.464,12.309Zm13.292.567L10.2,9.181l-.915.839A2.195,2.195,0,0,1,6.321,6.784L8.815,4.5H6.26a.974.974,0,0,0-.689.287L3.9,6.452v6.827h.558l2.76,2.5a1.951,1.951,0,0,0,2.744-.284l.006-.006.546.473a1.133,1.133,0,0,0,1.595-.165l.957-1.177.165.134a.974.974,0,0,0,1.372-.143l.29-.357a.978.978,0,0,0-.14-1.375Z" transform="translate(0 -4.5)"/>
</svg>
