<svg xmlns="http://www.w3.org/2000/svg" width="16.015" height="10.677" viewBox="0 0 16.015 10.677">
  <path id="Icon_awesome-newspaper" data-name="Icon awesome-newspaper" d="M15.348,4.5H2.447a.667.667,0,0,0-.667.667V5.39H.667A.667.667,0,0,0,0,6.057V13.62a1.557,1.557,0,0,0,1.557,1.557H14.68a1.335,1.335,0,0,0,1.335-1.335V5.167A.667.667,0,0,0,15.348,4.5ZM1.557,13.842a.222.222,0,0,1-.222-.222v-6.9h.445v6.9A.222.222,0,0,1,1.557,13.842ZM8.119,13.4H3.893a.334.334,0,0,1-.334-.334v-.222a.334.334,0,0,1,.334-.334H8.119a.334.334,0,0,1,.334.334v.222A.334.334,0,0,1,8.119,13.4Zm5.783,0H9.676a.334.334,0,0,1-.334-.334v-.222a.334.334,0,0,1,.334-.334H13.9a.334.334,0,0,1,.334.334v.222A.334.334,0,0,1,13.9,13.4ZM8.119,10.728H3.893a.334.334,0,0,1-.334-.334v-.222a.334.334,0,0,1,.334-.334H8.119a.334.334,0,0,1,.334.334v.222A.334.334,0,0,1,8.119,10.728Zm5.783,0H9.676a.334.334,0,0,1-.334-.334v-.222a.334.334,0,0,1,.334-.334H13.9a.334.334,0,0,1,.334.334v.222A.334.334,0,0,1,13.9,10.728Zm0-2.669H3.893a.334.334,0,0,1-.334-.334V6.613a.334.334,0,0,1,.334-.334H13.9a.334.334,0,0,1,.334.334V7.725A.334.334,0,0,1,13.9,8.059Z" transform="translate(0 -4.5)"/>
</svg>
