<svg xmlns="http://www.w3.org/2000/svg" width="16.334" height="12.702" viewBox="0 0 16.334 12.702">
  <path id="Icon_awesome-home" data-name="Icon awesome-home" d="M7.949,5.549,2.722,9.855V14.5a.454.454,0,0,0,.454.454l3.178-.008a.454.454,0,0,0,.451-.454V11.78a.454.454,0,0,1,.454-.454H9.073a.454.454,0,0,1,.454.454v2.712a.454.454,0,0,0,.454.455l3.176.009a.454.454,0,0,0,.454-.454V9.851l-5.227-4.3A.346.346,0,0,0,7.949,5.549Zm8.258,2.927L13.837,6.521V2.594a.34.34,0,0,0-.34-.34H11.909a.34.34,0,0,0-.34.34V4.653L9.03,2.564a1.361,1.361,0,0,0-1.73,0L.122,8.475a.34.34,0,0,0-.045.479L.8,9.834a.34.34,0,0,0,.479.046l6.67-5.494a.346.346,0,0,1,.434,0l6.67,5.494a.34.34,0,0,0,.479-.045l.723-.879a.34.34,0,0,0-.048-.48Z" transform="translate(0.001 -2.253)"/>
</svg>
