<svg xmlns="http://www.w3.org/2000/svg" width="12.258" height="14.301" viewBox="0 0 12.258 14.301">
  <path id="Icon_ionic-md-clipboard" data-name="Icon ionic-md-clipboard" d="M15.4,3.782H12.608a2.044,2.044,0,0,0-3.957,0H5.862A1.366,1.366,0,0,0,4.5,5.144V15.189a1.366,1.366,0,0,0,1.362,1.362H15.4a1.366,1.366,0,0,0,1.362-1.362V5.144A1.366,1.366,0,0,0,15.4,3.782Zm-4.767,0a.681.681,0,1,1-.681.681A.683.683,0,0,1,10.629,3.782Zm4.852,11.492h-9.7V5.059H7.054v2.3H14.2v-2.3h1.277Z" transform="translate(-4.5 -2.25)"/>
</svg>
