<svg xmlns="http://www.w3.org/2000/svg" width="16.198" height="16.807" viewBox="0 0 16.198 16.807">
  <g id="Icon_ionic-md-contacts" data-name="Icon ionic-md-contacts" transform="translate(24.027 13.452)">
    <path id="Path_7098" data-name="Path 7098" d="M13.669,24.183a6.739,6.739,0,0,1-6.641,0c-2.6.793-4.192,3.42-4.778,5.735h16.2C17.861,27.6,16.269,24.976,13.669,24.183Z" transform="translate(-26.277 -26.563)" fill="#fff"/>
    <path id="Path_7099" data-name="Path 7099" d="M10.12,8.44A4.981,4.981,0,1,0,15.1,13.421,4.982,4.982,0,0,0,10.12,8.44Zm0,8.775a3.849,3.849,0,0,1-3.482-2.377H13.6A3.849,3.849,0,0,1,10.12,17.215Z" transform="translate(-26.048 -21.892)" fill="#fff"/>
  </g>
</svg>
