<svg xmlns="http://www.w3.org/2000/svg" width="14.089" height="19.72" viewBox="0 0 14.089 19.72">
  <path id="Icon_ionic-md-keypad" data-name="Icon ionic-md-keypad" d="M13.794,18.386a1.792,1.792,0,1,0,1.783,1.792A1.792,1.792,0,0,0,13.794,18.386ZM8.533,2.25a1.792,1.792,0,1,0,1.783,1.792A1.792,1.792,0,0,0,8.533,2.25Zm0,5.38a1.792,1.792,0,1,0,1.783,1.792A1.792,1.792,0,0,0,8.533,7.63Zm0,5.38A1.792,1.792,0,1,0,10.316,14.8,1.792,1.792,0,0,0,8.533,13.01ZM19.056,5.838a1.794,1.794,0,1,0-1.783-1.8A1.792,1.792,0,0,0,19.056,5.838ZM13.794,13.01A1.792,1.792,0,1,0,15.578,14.8,1.792,1.792,0,0,0,13.794,13.01Zm5.261,0A1.792,1.792,0,1,0,20.839,14.8,1.792,1.792,0,0,0,19.056,13.01Zm0-5.38a1.792,1.792,0,1,0,1.783,1.792A1.792,1.792,0,0,0,19.056,7.63Zm-5.261,0a1.792,1.792,0,1,0,1.783,1.792A1.792,1.792,0,0,0,13.794,7.63Zm0-5.38a1.792,1.792,0,1,0,1.783,1.792A1.792,1.792,0,0,0,13.794,2.25Z" transform="translate(-6.75 -2.25)" fill="#fff"/>
</svg>
