<svg xmlns="http://www.w3.org/2000/svg" width="41.464" height="24.887" viewBox="0 0 41.464 24.887">
  <path id="Icon_awesome-handshake" data-name="Icon awesome-handshake" d="M28.163,4.5H22.6a2.072,2.072,0,0,0-1.4.544L14.83,10.875c-.006.006-.013.019-.019.026a2.577,2.577,0,0,0-.136,3.628,2.7,2.7,0,0,0,3.635.175c.006-.006.019-.006.026-.013l5.177-4.742a1.036,1.036,0,1,1,1.4,1.529L23.22,13.026l9.433,7.658a4.668,4.668,0,0,1,.512.5V8.646L29.627,5.109A2.058,2.058,0,0,0,28.163,4.5Zm7.081,4.159V23.165a2.071,2.071,0,0,0,2.073,2.073h4.146V8.659Zm3.11,14.506a1.037,1.037,0,1,1,1.037-1.037A1.04,1.04,0,0,1,38.354,23.165ZM0,25.232H4.146A2.071,2.071,0,0,0,6.22,23.159V8.659H0Zm3.11-4.14a1.037,1.037,0,1,1-1.037,1.037A1.04,1.04,0,0,1,3.11,21.092ZM31.351,22.3l-9.673-7.852-1.944,1.782a4.663,4.663,0,0,1-6.3-6.874L18.73,4.5H13.3a2.069,2.069,0,0,0-1.464.609L8.293,8.646V23.152H9.478l5.863,5.306a4.146,4.146,0,0,0,5.831-.6l.013-.013,1.16,1a2.408,2.408,0,0,0,3.388-.35L27.768,26l.35.285a2.07,2.07,0,0,0,2.915-.3l.615-.758a2.077,2.077,0,0,0-.3-2.922Z" transform="translate(0 -4.5)" fill="#001940"/>
</svg>
