<svg xmlns="http://www.w3.org/2000/svg" width="15.056" height="15.056" viewBox="0 0 15.056 15.056">
  <path id="Icon_awesome-phone-alt" data-name="Icon awesome-phone-alt" d="M14.627,10.64,11.333,9.228a.706.706,0,0,0-.823.2L9.051,11.213A10.9,10.9,0,0,1,3.841,6L5.623,4.544a.7.7,0,0,0,.2-.823L4.414.427A.71.71,0,0,0,3.605.018L.547.724A.706.706,0,0,0,0,1.412,13.643,13.643,0,0,0,13.645,15.057a.706.706,0,0,0,.688-.547l.706-3.058A.714.714,0,0,0,14.627,10.64Z" transform="translate(0 0)" fill="#fff"/>
</svg>
