<svg xmlns="http://www.w3.org/2000/svg" width="36.667" height="36.667" viewBox="0 0 36.667 36.667">
  <g id="search_magnifier_magnifying_glass_loupe" transform="translate(-1 -1)">
    <g id="Group_1070" data-name="Group 1070" transform="translate(1 1)">
      <g id="Group_1064" data-name="Group 1064" transform="translate(24.095 24.062)">
        <path id="Path_7235" data-name="Path 7235" d="M24.258,24.841a.614.614,0,0,1-.433-.178L20.893,21.73a.611.611,0,1,1,.864-.864L24.69,23.8a.61.61,0,0,1-.431,1.043Z" transform="translate(-20.714 -20.687)" fill="#263238"/>
      </g>
      <g id="Group_1065" data-name="Group 1065" transform="translate(26.278 26.342)">
        <path id="Path_7236" data-name="Path 7236" d="M29.833,32.877a3.04,3.04,0,0,1-2.161-.895L23.395,27.7a3.057,3.057,0,0,1,0-4.322,3.225,3.225,0,0,1,4.321,0l4.278,4.278a3.055,3.055,0,0,1-2.16,5.216Zm-4.278-9.142a1.817,1.817,0,0,0-1.3,3.106l4.278,4.278a1.878,1.878,0,0,0,2.592,0,1.834,1.834,0,0,0,0-2.594l-4.278-4.278A1.839,1.839,0,0,0,25.556,23.735Z" transform="translate(-22.5 -22.552)" fill="#263238"/>
      </g>
      <g id="Group_1066" data-name="Group 1066">
        <path id="Path_7237" data-name="Path 7237" d="M15.667,30.333A14.667,14.667,0,1,1,30.333,15.667,14.683,14.683,0,0,1,15.667,30.333Zm0-28.111A13.444,13.444,0,1,0,29.111,15.667,13.46,13.46,0,0,0,15.667,2.222Z" transform="translate(-1 -1)" fill="#263238"/>
      </g>
      <g id="XMLID_1093_" transform="translate(25.056 14.669)">
        <g id="Group_1068" data-name="Group 1068">
          <g id="Group_1067" data-name="Group 1067">
            <path id="Path_7238" data-name="Path 7238" d="M22.111,14.222a.573.573,0,0,1-.428-.183.593.593,0,0,1-.183-.428.638.638,0,0,1,.171-.429.63.63,0,0,1,.868-.012.622.622,0,0,1,.183.44.629.629,0,0,1-.611.612Z" transform="translate(-21.5 -13.002)" fill="#263238"/>
          </g>
        </g>
      </g>
      <g id="Group_1069" data-name="Group 1069" transform="translate(14.056 17.252)">
        <path id="Path_7239" data-name="Path 7239" d="M13.111,24.08a.611.611,0,0,1,0-1.222,10.327,10.327,0,0,0,9.94-7.31.612.612,0,0,1,1.17.358A11.544,11.544,0,0,1,13.111,24.08Z" transform="translate(-12.5 -15.115)" fill="#263238"/>
      </g>
    </g>
  </g>
</svg>
