<svg xmlns="http://www.w3.org/2000/svg" width="36.667" height="33" viewBox="0 0 36.667 33">
  <g id="folder_x2C__clipboard" transform="translate(-1 -3)">
    <g id="Group_1058" data-name="Group 1058" transform="translate(1 3)">
      <g id="XMLID_4045_" transform="translate(1.222)">
        <path id="Path_7220" data-name="Path 7220" d="M35.611,7.889h-22a.612.612,0,0,1-.508-.273l-1.766-2.65a1.961,1.961,0,0,0-1.392-.744H3.833a.612.612,0,0,0-.611.611V7.278A.611.611,0,1,1,2,7.278V4.833A1.836,1.836,0,0,1,3.833,3H9.944a3.137,3.137,0,0,1,2.409,1.289l1.585,2.377H35.611a.611.611,0,0,1,0,1.222Z" transform="translate(-2 -3)" fill="#263238"/>
      </g>
      <g id="XMLID_4049_" transform="translate(0 6.111)">
        <path id="Path_7221" data-name="Path 7221" d="M35.833,34.889h-33A1.836,1.836,0,0,1,1,33.056V9.833A1.836,1.836,0,0,1,2.833,8h33a1.836,1.836,0,0,1,1.833,1.833V33.056A1.836,1.836,0,0,1,35.833,34.889Zm-33-25.667a.612.612,0,0,0-.611.611V33.056a.612.612,0,0,0,.611.611h33a.612.612,0,0,0,.611-.611V9.833a.612.612,0,0,0-.611-.611Z" transform="translate(-1 -8)" fill="#263238"/>
      </g>
      <g id="Group_1051" data-name="Group 1051" transform="translate(3.667 11)">
        <path id="Path_7222" data-name="Path 7222" d="M15.611,13.222h-11a.611.611,0,1,1,0-1.222h11a.611.611,0,0,1,0,1.222Z" transform="translate(-4 -12)" fill="#263238"/>
      </g>
      <g id="Group_1052" data-name="Group 1052" transform="translate(3.667 13.444)">
        <path id="Path_7223" data-name="Path 7223" d="M10.722,15.222H4.611a.611.611,0,1,1,0-1.222h6.111a.611.611,0,1,1,0,1.222Z" transform="translate(-4 -14)" fill="#263238"/>
      </g>
      <g id="Group_1053" data-name="Group 1053" transform="translate(0 29.333)">
        <path id="Path_7224" data-name="Path 7224" d="M30.944,28.222H1.611a.611.611,0,1,1,0-1.222H30.944a.611.611,0,0,1,0,1.222Z" transform="translate(-1 -27)" fill="#263238"/>
      </g>
      <g id="Group_1057" data-name="Group 1057" transform="translate(31.778 29.342)">
        <g id="Group_1056" data-name="Group 1056">
          <g id="XMLID_718_">
            <g id="Group_1055" data-name="Group 1055">
              <g id="Group_1054" data-name="Group 1054">
                <path id="Path_7225" data-name="Path 7225" d="M27.611,28.221a.628.628,0,0,1-.428-.183.592.592,0,0,1,0-.857.615.615,0,0,1,.856,0,.58.58,0,0,1,.183.429.624.624,0,0,1-.183.439A.671.671,0,0,1,27.611,28.221Z" transform="translate(-27 -27.007)" fill="#263238"/>
              </g>
            </g>
          </g>
        </g>
      </g>
    </g>
  </g>
</svg>
