<svg xmlns="http://www.w3.org/2000/svg" width="18.372" height="17.907" viewBox="0 0 18.372 17.907">
  <path id="Icon_awesome-arrow-right" data-name="Icon awesome-arrow-right" d="M7.811,3.847l.91-.91a.98.98,0,0,1,1.39,0L18.083,10.9a.98.98,0,0,1,0,1.39l-7.971,7.971a.98.98,0,0,1-1.39,0l-.91-.91a.985.985,0,0,1,.016-1.406l4.941-4.707H.984A.982.982,0,0,1,0,12.257V10.944A.982.982,0,0,1,.984,9.96H12.769L7.828,5.253A.978.978,0,0,1,7.811,3.847Z" transform="translate(18.372 20.554) rotate(180)" fill="#fff"/>
</svg>
